<svg width="40" height="40" viewBox="0 0 40 40" fill="none" xmlns="http://www.w3.org/2000/svg">
<path d="M20.0007 36.6667C22.1898 36.6694 24.3578 36.2395 26.3803 35.4017C28.4027 34.564 30.2397 33.3349 31.7857 31.785C33.3355 30.239 34.5646 28.402 35.4024 26.3796C36.2402 24.3571 36.67 22.1891 36.6673 20C36.67 17.8109 36.2402 15.6428 35.4024 13.6204C34.5646 11.598 33.3355 9.76097 31.7857 8.21499C30.2397 6.66513 28.4027 5.43601 26.3803 4.59825C24.3578 3.7605 22.1898 3.33063 20.0007 3.33333C17.8116 3.33063 15.6435 3.7605 13.6211 4.59825C11.5986 5.43601 9.76164 6.66513 8.21566 8.21499C6.6658 9.76097 5.43668 11.598 4.59893 13.6204C3.76117 15.6428 3.3313 17.8109 3.334 20C3.3313 22.1891 3.76117 24.3571 4.59893 26.3796C5.43668 28.402 6.6658 30.239 8.21566 31.785C9.76164 33.3349 11.5986 34.564 13.6211 35.4017C15.6435 36.2395 17.8116 36.6694 20.0007 36.6667Z" stroke="white" stroke-width="1.5" stroke-linejoin="round"/>
<path fill-rule="evenodd" clip-rule="evenodd" d="M20.0013 30C20.3549 30 20.6941 29.8595 20.9441 29.6095C21.1942 29.3594 21.3346 29.0203 21.3346 28.6666C21.3346 28.313 21.1942 27.9739 20.9441 27.7238C20.6941 27.4738 20.3549 27.3333 20.0013 27.3333C19.6477 27.3333 19.3085 27.4738 19.0585 27.7238C18.8084 27.9739 18.668 28.313 18.668 28.6666C18.668 29.0203 18.8084 29.3594 19.0585 29.6095C19.3085 29.8595 19.6477 30 20.0013 30Z" fill="white"/>
<path d="M20 10V23.3333" stroke="white" stroke-width="1.5" stroke-linecap="round" stroke-linejoin="round"/>
</svg>
