<svg width="40" height="40" viewBox="0 0 40 40" fill="none" xmlns="http://www.w3.org/2000/svg">
<path d="M9.65833 23.8433L6.705 20.885L3.75 23.8433M30.3417 16.2117L33.295 19.1717L36.25 16.2117" stroke="white" stroke-width="1.5" stroke-linecap="round" stroke-linejoin="round"/>
<path d="M33.2951 19.1717C33.2951 15.6383 31.8951 12.2533 29.4017 9.75498C28.168 8.51875 26.7025 7.53796 25.0893 6.86875C23.476 6.19954 21.7466 5.85505 20.0001 5.85498C18.3035 5.85364 16.6227 6.18018 15.0501 6.81665C13.2945 7.52054 11.7093 8.59078 10.4001 9.95595C9.09102 11.3211 8.08813 12.9498 7.45841 14.7333M6.70508 20.8833C6.70764 23.9742 7.784 26.9683 9.75008 29.3533C11.714 31.7355 14.4464 33.3592 17.4777 33.9453C20.5089 34.5315 23.6497 34.0434 26.3601 32.565C29.0704 31.0836 31.1823 28.7072 32.3351 25.8417" stroke="white" stroke-width="1.5" stroke-linecap="round" stroke-linejoin="round"/>
<path d="M15.9668 23.2967C16.0535 24.2861 16.5242 25.2022 17.2781 25.8489C18.0319 26.4956 19.009 26.8215 20.0001 26.7567C23.2535 26.7567 24.0335 24.885 24.0335 23.2967C24.0335 21.7083 22.6885 20.025 20.0001 20.025C17.3118 20.025 15.9668 18.9617 15.9668 16.795C16.0041 16.0442 16.2692 15.3226 16.7269 14.7262C17.1845 14.1298 17.8129 13.687 18.5285 13.4567C19.0035 13.3033 19.5035 13.2483 20.0001 13.295C20.9925 13.2519 21.9637 13.5907 22.7139 14.2417C23.4641 14.8927 23.9363 15.8065 24.0335 16.795M20.0001 28.7733V27.0217M20.0001 11.2717V13.2883" stroke="white" stroke-width="1.5" stroke-linecap="round" stroke-linejoin="round"/>
</svg>
