<svg width="25" height="24" viewBox="0 0 25 24" fill="none" xmlns="http://www.w3.org/2000/svg">
<path d="M12.25 2C6.73 2 2.25 6.48 2.25 12C2.25 17.52 6.73 22 12.25 22C17.77 22 22.25 17.52 22.25 12C22.25 6.48 17.77 2 12.25 2ZM16.89 8.8C16.74 10.38 16.09 14.22 15.76 15.99C15.62 16.74 15.34 16.99 15.08 17.02C14.5 17.07 14.06 16.64 13.5 16.27C12.62 15.69 12.12 15.33 11.27 14.77C10.28 14.12 10.92 13.76 11.49 13.18C11.64 13.03 14.2 10.7 14.25 10.49C14.2569 10.4582 14.256 10.4252 14.2473 10.3938C14.2386 10.3624 14.2224 10.3337 14.2 10.31C14.14 10.26 14.06 10.28 13.99 10.29C13.9 10.31 12.5 11.24 9.77 13.08C9.37 13.35 9.01 13.49 8.69 13.48C8.33 13.47 7.65 13.28 7.14 13.11C6.51 12.91 6.02 12.8 6.06 12.45C6.08 12.27 6.33 12.09 6.8 11.9C9.72 10.63 11.66 9.79 12.63 9.39C15.41 8.23 15.98 8.03 16.36 8.03C16.44 8.03 16.63 8.05 16.75 8.15C16.85 8.23 16.88 8.34 16.89 8.42C16.88 8.48 16.9 8.66 16.89 8.8Z" fill="#11A0E2"/>
</svg>
