<svg width="25" height="24" viewBox="0 0 25 24" fill="none" xmlns="http://www.w3.org/2000/svg">
<path d="M12.752 2C18.275 2 22.752 6.477 22.752 12C22.752 17.523 18.275 22 12.752 22C10.9847 22.003 9.24855 21.5353 7.72197 20.645L2.75597 22L4.10797 17.032C3.21693 15.5049 2.74887 13.768 2.75197 12C2.75197 6.477 7.22897 2 12.752 2ZM9.34397 7.3L9.14397 7.308C9.01466 7.31691 8.88832 7.35087 8.77197 7.408C8.66354 7.46951 8.56453 7.5463 8.47797 7.636C8.35797 7.749 8.28997 7.847 8.21697 7.942C7.84709 8.4229 7.64794 9.01331 7.65097 9.62C7.65297 10.11 7.78097 10.587 7.98097 11.033C8.38997 11.935 9.06297 12.89 9.95097 13.775C10.165 13.988 10.375 14.202 10.601 14.401C11.7044 15.3724 13.0192 16.073 14.441 16.447L15.009 16.534C15.194 16.544 15.379 16.53 15.565 16.521C15.8562 16.5056 16.1405 16.4268 16.398 16.29C16.5288 16.2223 16.6566 16.1489 16.781 16.07C16.781 16.07 16.8233 16.0413 16.906 15.98C17.041 15.88 17.124 15.809 17.236 15.692C17.32 15.6053 17.39 15.5047 17.446 15.39C17.524 15.227 17.602 14.916 17.634 14.657C17.658 14.459 17.651 14.351 17.648 14.284C17.644 14.177 17.555 14.066 17.458 14.019L16.876 13.758C16.876 13.758 16.006 13.379 15.474 13.137C15.4183 13.1128 15.3586 13.0989 15.298 13.096C15.2295 13.0888 15.1604 13.0965 15.0952 13.1184C15.0299 13.1403 14.9702 13.176 14.92 13.223C14.915 13.221 14.848 13.278 14.125 14.154C14.0835 14.2098 14.0263 14.2519 13.9608 14.2751C13.8952 14.2982 13.8243 14.3013 13.757 14.284C13.6918 14.2666 13.628 14.2446 13.566 14.218C13.442 14.166 13.399 14.146 13.314 14.11C12.7398 13.8599 12.2084 13.5215 11.739 13.107C11.613 12.997 11.496 12.877 11.376 12.761C10.9826 12.3842 10.6397 11.958 10.356 11.493L10.297 11.398C10.2552 11.3338 10.221 11.265 10.195 11.193C10.157 11.046 10.256 10.928 10.256 10.928C10.256 10.928 10.499 10.662 10.612 10.518C10.722 10.378 10.815 10.242 10.875 10.145C10.993 9.955 11.03 9.76 10.968 9.609C10.688 8.925 10.3986 8.24467 10.1 7.568C10.041 7.434 9.86597 7.338 9.70697 7.319C9.65297 7.31233 9.59897 7.307 9.54497 7.303C9.4107 7.2953 9.27606 7.29664 9.14197 7.307L9.34397 7.3Z" fill="#6EFC59"/>
</svg>
